<svg width="96" height="52" viewBox="0 0 96 52" fill="none" xmlns="http://www.w3.org/2000/svg">
<path d="M4.10177 0.952576H12.8215C15.0894 0.952576 17.0356 1.16014 18.6569 1.57827C20.2781 1.9964 21.7507 2.7755 23.0744 3.9216C26.5143 6.83949 28.2358 11.2735 28.2358 17.2266C28.2358 19.1908 28.0627 20.9837 27.7166 22.6081C27.3705 24.2295 26.8392 25.6914 26.1166 26.994C25.394 28.2965 24.471 29.4606 23.3446 30.4894C22.4581 31.2775 21.4895 31.9123 20.439 32.3875C19.3886 32.8628 18.2561 33.1997 17.0477 33.3923C15.8394 33.5847 14.4761 33.681 12.9581 33.681H4.23536C3.01789 33.681 2.10098 33.4975 1.48769 33.1336C0.871365 32.7696 0.470596 32.2551 0.282354 31.5934C0.0941192 30.9316 0 30.0713 0 29.0154V5.01355C0 3.58469 0.321823 2.54989 0.968518 1.90916C1.6152 1.26843 2.65963 0.952576 4.10177 0.952576ZM6.69461 6.19875V28.4137H11.7649C12.8761 28.4137 13.7475 28.3837 14.379 28.3235C15.0105 28.2634 15.6633 28.116 16.3403 27.8783C17.0174 27.6407 17.6033 27.3068 18.0982 26.8737C20.3359 24.9996 21.4561 21.7688 21.4561 17.1845C21.4561 13.9537 20.9643 11.5352 19.9806 9.92884C18.9969 8.32249 17.7825 7.29672 16.3403 6.85753C14.8982 6.41834 13.1554 6.19875 11.1122 6.19875H6.69461Z" fill="#FF7A00"/>
<path d="M73.1422 28.7477L67.8473 7.8953V30.4894C67.8473 31.7408 67.5649 32.6763 67.0033 33.302C66.4416 33.9276 65.6916 34.2405 64.7626 34.2405C63.8336 34.2405 63.1262 33.9306 62.5554 33.314C61.9846 32.6973 61.6992 31.7558 61.6992 30.4894V4.58936C61.6992 3.1605 62.0756 2.19789 62.8256 1.69855C63.5755 1.1992 64.5895 0.949524 65.8678 0.949524H67.9414C69.1893 0.949524 70.094 1.06082 70.6557 1.28343C71.2174 1.50603 71.6364 1.90911 71.9066 2.48968C72.1768 3.07025 72.4834 4.01481 72.8295 5.32636L77.6297 23.2548L82.4296 5.32636C82.7761 4.01782 83.0824 3.07025 83.3525 2.48968C83.6226 1.90911 84.0392 1.50603 84.6038 1.28343C85.1685 1.06082 86.0733 0.949524 87.3175 0.949524H89.3918C90.6699 0.949524 91.681 1.1992 92.4338 1.69855C93.1835 2.19789 93.56 3.1605 93.56 4.58936V30.4864C93.56 31.7377 93.278 32.6732 92.7158 33.299C92.1543 33.9246 91.3983 34.2375 90.4509 34.2375C89.5642 34.2375 88.8358 33.9246 88.2649 33.299C87.6939 32.6732 87.4089 31.7347 87.4089 30.4864V7.8953L82.1138 28.7477C81.7681 30.1013 81.4854 31.097 81.2696 31.7287C81.0515 32.3604 80.6506 32.938 80.0647 33.4584C79.4789 33.9788 78.6677 34.2405 77.6297 34.2405C76.8493 34.2405 76.1875 34.072 75.6471 33.7381C75.1066 33.4043 74.6846 32.974 74.384 32.4537C74.0834 31.9332 73.8466 31.3557 73.6736 30.724C73.5005 30.0923 73.3245 29.4335 73.1453 28.7477H73.1422Z" fill="#FF7A00"/>
<path d="M40.6695 30.3841V18.0267C40.6695 16.2058 39.1796 14.7298 37.3418 14.7298H37.3388C35.5011 14.7298 34.0112 16.2058 34.0112 18.0267V30.3841C34.0112 32.205 35.5011 33.681 37.3388 33.681H37.3418C39.1796 33.681 40.6695 32.205 40.6695 30.3841Z" fill="#FF7A00"/>
<path d="M37.3276 7.50091H53.759C55.5968 7.50091 57.0865 6.02484 57.0865 4.204V4.20099C57.0865 2.38016 55.5968 0.904083 53.759 0.904083H37.3276C35.4899 0.904083 34 2.38016 34 4.20099V4.204C34 6.02484 35.4899 7.50091 37.3276 7.50091Z" fill="#FF7A00"/>
<path d="M37.3276 21.3381H53.759C55.5968 21.3381 57.0865 19.862 57.0865 18.0412V18.0382C57.0865 16.2173 55.5968 14.7413 53.759 14.7413H37.3276C35.4899 14.7413 34 16.2173 34 18.0382V18.0412C34 19.862 35.4899 21.3381 37.3276 21.3381Z" fill="#FF7A00"/>
<path d="M17.6166 17.437C17.6166 16.108 16.5291 15.0305 15.1877 15.0305C13.8462 15.0305 12.7588 16.108 12.7588 17.437C12.7588 18.7661 13.8462 19.8435 15.1877 19.8435C16.5291 19.8435 17.6166 18.7661 17.6166 17.437Z" fill="#FF7A00"/>
<path d="M28.243 17.437C28.243 16.108 27.1556 15.0305 25.8142 15.0305C24.4727 15.0305 23.3853 16.108 23.3853 17.437C23.3853 18.7661 24.4727 19.8435 25.8142 19.8435C27.1556 19.8435 28.243 18.7661 28.243 17.437Z" fill="white"/>
<path d="M23.841 17.4368H21.4121" stroke="white" stroke-width="1.49405" stroke-miterlimit="10"/>
<path d="M11.6074 18.9411L5.68701 24.5061" stroke="#FF7A00" stroke-width="1.49405" stroke-linecap="round" stroke-linejoin="round"/>
<path d="M11.9375 28.4101V23.2241L14.1903 20.8958" stroke="#FF7A00" stroke-width="1.49405" stroke-linecap="round" stroke-linejoin="round"/>
<path d="M11.6074 15.626L5.68701 10.0609" stroke="#FF7A00" stroke-width="1.49405" stroke-linecap="round" stroke-linejoin="round"/>
<path d="M11.9375 6.15668V11.3427L14.1903 13.671" stroke="#FF7A00" stroke-width="1.49405" stroke-linecap="round" stroke-linejoin="round"/>
<path d="M3.26781 47.0959H0.737472V39.6289H3.31885C4.06021 39.6289 4.69705 39.7784 5.22936 40.0774C5.76411 40.3739 6.1749 40.8005 6.46172 41.3571C6.74854 41.9137 6.89195 42.5797 6.89195 43.3551C6.89195 44.133 6.74732 44.8014 6.45807 45.3604C6.17125 45.9195 5.75682 46.3485 5.21478 46.6475C4.67517 46.9465 4.02618 47.0959 3.26781 47.0959ZM2.09014 45.9256H3.20218C3.72234 45.9256 4.15622 45.8308 4.50381 45.6412C4.85139 45.4492 5.11269 45.1636 5.2877 44.7844C5.46271 44.4028 5.55021 43.9263 5.55021 43.3551C5.55021 42.7839 5.46271 42.3099 5.2877 41.9332C5.11269 41.554 4.85382 41.2708 4.5111 41.0837C4.1708 40.8941 3.74787 40.7993 3.24229 40.7993H2.09014V45.9256ZM9.73037 47.209C9.37549 47.209 9.05586 47.1458 8.77147 47.0194C8.48951 46.8906 8.26589 46.701 8.1006 46.4506C7.93775 46.2002 7.85632 45.8915 7.85632 45.5245C7.85632 45.2085 7.91466 44.9472 8.03133 44.7406C8.148 44.534 8.30721 44.3687 8.50896 44.2448C8.7107 44.1208 8.93797 44.0272 9.19076 43.964C9.44598 43.8984 9.70971 43.851 9.98195 43.8218C10.3101 43.7878 10.5762 43.7574 10.7804 43.7307C10.9846 43.7015 11.1329 43.6578 11.2252 43.5994C11.32 43.5387 11.3674 43.4451 11.3674 43.3187V43.2968C11.3674 43.0221 11.286 42.8094 11.1232 42.6587C10.9603 42.508 10.7257 42.4327 10.4195 42.4327C10.0962 42.4327 9.83975 42.5032 9.65016 42.6442C9.463 42.7851 9.3366 42.9516 9.27097 43.1437L8.03862 42.9687C8.13585 42.6284 8.29627 42.344 8.51989 42.1155C8.74352 41.8846 9.01697 41.712 9.34025 41.5978C9.66353 41.4811 10.0208 41.4227 10.4122 41.4227C10.682 41.4227 10.9506 41.4543 11.2179 41.5175C11.4853 41.5807 11.7296 41.6853 11.9508 41.8311C12.172 41.9745 12.3494 42.1702 12.4831 42.4181C12.6192 42.666 12.6873 42.9759 12.6873 43.3478V47.0959H11.4185V46.3266H11.3747C11.2945 46.4822 11.1815 46.628 11.0356 46.7642C10.8922 46.8978 10.7112 47.006 10.4924 47.0887C10.2761 47.1689 10.0221 47.209 9.73037 47.209ZM10.0731 46.2391C10.338 46.2391 10.5677 46.1869 10.7622 46.0824C10.9566 45.9754 11.1061 45.8344 11.2107 45.6594C11.3176 45.4844 11.3711 45.2936 11.3711 45.087V44.4271C11.3298 44.4611 11.2593 44.4927 11.1596 44.5219C11.0624 44.551 10.953 44.5765 10.8315 44.5984C10.7099 44.6203 10.5896 44.6397 10.4705 44.6568C10.3514 44.6738 10.2481 44.6884 10.1606 44.7005C9.96372 44.7273 9.78749 44.771 9.63193 44.8318C9.47637 44.8925 9.35362 44.9776 9.26368 45.087C9.17375 45.1939 9.12878 45.3325 9.12878 45.5026C9.12878 45.7457 9.2175 45.9292 9.39494 46.0532C9.57238 46.1772 9.79843 46.2391 10.0731 46.2391ZM16.8109 41.4957V42.5166H13.5915V41.4957H16.8109ZM14.3863 40.1539H15.7062V45.4115C15.7062 45.5889 15.7329 45.725 15.7864 45.8198C15.8423 45.9122 15.9152 45.9754 16.0052 46.0094C16.0951 46.0435 16.1948 46.0605 16.3041 46.0605C16.3868 46.0605 16.4621 46.0544 16.5302 46.0422C16.6007 46.0301 16.6542 46.0192 16.6906 46.0094L16.913 47.0413C16.8425 47.0656 16.7417 47.0923 16.6104 47.1215C16.4816 47.1506 16.3236 47.1677 16.1364 47.1725C15.8059 47.1822 15.5081 47.1324 15.2431 47.023C14.9782 46.9112 14.768 46.7386 14.6124 46.5053C14.4593 46.2719 14.3839 45.9803 14.3863 45.6302V40.1539ZM19.5263 47.209C19.1714 47.209 18.8518 47.1458 18.5674 47.0194C18.2854 46.8906 18.0618 46.701 17.8965 46.4506C17.7337 46.2002 17.6523 45.8915 17.6523 45.5245C17.6523 45.2085 17.7106 44.9472 17.8273 44.7406C17.9439 44.534 18.1031 44.3687 18.3049 44.2448C18.5066 44.1208 18.7339 44.0272 18.9867 43.964C19.2419 43.8984 19.5056 43.851 19.7779 43.8218C20.106 43.7878 20.3722 43.7574 20.5764 43.7307C20.7805 43.7015 20.9288 43.6578 21.0212 43.5994C21.116 43.5387 21.1634 43.4451 21.1634 43.3187V43.2968C21.1634 43.0221 21.0819 42.8094 20.9191 42.6587C20.7562 42.508 20.5217 42.4327 20.2154 42.4327C19.8921 42.4327 19.6357 42.5032 19.4461 42.6442C19.2589 42.7851 19.1325 42.9516 19.0669 43.1437L17.8346 42.9687C17.9318 42.6284 18.0922 42.344 18.3158 42.1155C18.5395 41.8846 18.8129 41.712 19.1362 41.5978C19.4595 41.4811 19.8168 41.4227 20.2081 41.4227C20.4779 41.4227 20.7465 41.4543 21.0139 41.5175C21.2813 41.5807 21.5255 41.6853 21.7467 41.8311C21.9679 41.9745 22.1454 42.1702 22.279 42.4181C22.4152 42.666 22.4832 42.9759 22.4832 43.3478V47.0959H21.2144V46.3266H21.1707C21.0904 46.4822 20.9774 46.628 20.8316 46.7642C20.6882 46.8978 20.5071 47.006 20.2883 47.0887C20.072 47.1689 19.818 47.209 19.5263 47.209ZM19.869 46.2391C20.134 46.2391 20.3637 46.1869 20.5581 46.0824C20.7526 45.9754 20.9021 45.8344 21.0066 45.6594C21.1135 45.4844 21.167 45.2936 21.167 45.087V44.4271C21.1257 44.4611 21.0552 44.4927 20.9555 44.5219C20.8583 44.551 20.7489 44.5765 20.6274 44.5984C20.5059 44.6203 20.3856 44.6397 20.2664 44.6568C20.1473 44.6738 20.044 44.6884 19.9565 44.7005C19.7597 44.7273 19.5834 44.771 19.4279 44.8318C19.2723 44.8925 19.1496 44.9776 19.0596 45.087C18.9697 45.1939 18.9247 45.3325 18.9247 45.5026C18.9247 45.7457 19.0134 45.9292 19.1909 46.0532C19.3683 46.1772 19.5944 46.2391 19.869 46.2391ZM26.4155 47.0959V39.6289H31.199V40.7628H27.7681V42.79H30.8709V43.9239H27.7681V47.0959H26.4155ZM33.6929 39.6289V47.0959H32.373V39.6289H33.6929ZM37.493 47.2053C36.9461 47.2053 36.4721 47.085 36.071 46.8444C35.67 46.6037 35.3588 46.2671 35.1376 45.8344C34.9189 45.4018 34.8095 44.8962 34.8095 44.3177C34.8095 43.7392 34.9189 43.2324 35.1376 42.7973C35.3588 42.3622 35.67 42.0243 36.071 41.7837C36.4721 41.5431 36.9461 41.4227 37.493 41.4227C38.0399 41.4227 38.5138 41.5431 38.9149 41.7837C39.316 42.0243 39.6259 42.3622 39.8446 42.7973C40.0658 43.2324 40.1764 43.7392 40.1764 44.3177C40.1764 44.8962 40.0658 45.4018 39.8446 45.8344C39.6259 46.2671 39.316 46.6037 38.9149 46.8444C38.5138 47.085 38.0399 47.2053 37.493 47.2053ZM37.5003 46.148C37.7968 46.148 38.0447 46.0666 38.244 45.9037C38.4434 45.7384 38.5916 45.5172 38.6889 45.2401C38.7885 44.963 38.8383 44.6543 38.8383 44.314C38.8383 43.9713 38.7885 43.6614 38.6889 43.3843C38.5916 43.1048 38.4434 42.8824 38.244 42.7171C38.0447 42.5518 37.7968 42.4692 37.5003 42.4692C37.1964 42.4692 36.9436 42.5518 36.7419 42.7171C36.5426 42.8824 36.3931 43.1048 36.2934 43.3843C36.1962 43.6614 36.1476 43.9713 36.1476 44.314C36.1476 44.6543 36.1962 44.963 36.2934 45.2401C36.3931 45.5172 36.5426 45.7384 36.7419 45.9037C36.9436 46.0666 37.1964 46.148 37.5003 46.148ZM42.292 47.0959L40.7097 41.4957H42.055L43.0395 45.4334H43.0905L44.0968 41.4957H45.4276L46.4339 45.4115H46.4886L47.4584 41.4957H48.8075L47.2214 47.0959H45.8469L44.7968 43.3114H44.7203L43.6702 47.0959H42.292ZM52.3341 39.6289H53.9894L56.2061 45.0396H56.2936L58.5104 39.6289H60.1657V47.0959H58.8677V41.966H58.7985L56.7348 47.0741H55.765L53.7013 41.9551H53.6321V47.0959H52.3341V39.6289ZM63.1919 47.209C62.837 47.209 62.5174 47.1458 62.233 47.0194C61.9511 46.8906 61.7274 46.701 61.5621 46.4506C61.3993 46.2002 61.3179 45.8915 61.3179 45.5245C61.3179 45.2085 61.3762 44.9472 61.4929 44.7406C61.6095 44.534 61.7688 44.3687 61.9705 44.2448C62.1722 44.1208 62.3995 44.0272 62.6523 43.964C62.9075 43.8984 63.1713 43.851 63.4435 43.8218C63.7716 43.7878 64.0378 43.7574 64.242 43.7307C64.4461 43.7015 64.5944 43.6578 64.6868 43.5994C64.7816 43.5387 64.829 43.4451 64.829 43.3187V43.2968C64.829 43.0221 64.7475 42.8094 64.5847 42.6587C64.4218 42.508 64.1873 42.4327 63.881 42.4327C63.5577 42.4327 63.3013 42.5032 63.1117 42.6442C62.9245 42.7851 62.7981 42.9516 62.7325 43.1437L61.5002 42.9687C61.5974 42.6284 61.7578 42.344 61.9814 42.1155C62.2051 41.8846 62.4785 41.712 62.8018 41.5978C63.1251 41.4811 63.4824 41.4227 63.8737 41.4227C64.1435 41.4227 64.4121 41.4543 64.6795 41.5175C64.9469 41.5807 65.1911 41.6853 65.4123 41.8311C65.6335 41.9745 65.811 42.1702 65.9447 42.4181C66.0808 42.666 66.1488 42.9759 66.1488 43.3478V47.0959H64.88V46.3266H64.8363C64.7561 46.4822 64.643 46.628 64.4972 46.7642C64.3538 46.8978 64.1727 47.006 63.9539 47.0887C63.7376 47.1689 63.4836 47.209 63.1919 47.209ZM63.5346 46.2391C63.7996 46.2391 64.0293 46.1869 64.2237 46.0824C64.4182 45.9754 64.5677 45.8344 64.6722 45.6594C64.7791 45.4844 64.8326 45.2936 64.8326 45.087V44.4271C64.7913 44.4611 64.7208 44.4927 64.6212 44.5219C64.5239 44.551 64.4145 44.5765 64.293 44.5984C64.1715 44.6203 64.0512 44.6397 63.9321 44.6568C63.813 44.6738 63.7096 44.6884 63.6221 44.7005C63.4253 44.7273 63.249 44.771 63.0935 44.8318C62.9379 44.8925 62.8152 44.9776 62.7252 45.087C62.6353 45.1939 62.5903 45.3325 62.5903 45.5026C62.5903 45.7457 62.679 45.9292 62.8565 46.0532C63.0339 46.1772 63.26 46.2391 63.5346 46.2391ZM68.7958 43.8145V47.0959H67.476V41.4957H68.7375V42.4473H68.8031C68.932 42.1337 69.1373 41.8846 69.4193 41.6998C69.7037 41.5151 70.0549 41.4227 70.473 41.4227C70.8595 41.4227 71.1961 41.5054 71.483 41.6707C71.7722 41.836 71.9958 42.0754 72.1538 42.3889C72.3142 42.7025 72.3932 43.0829 72.3908 43.5301V47.0959H71.071V43.7343C71.071 43.36 70.9737 43.0671 70.7793 42.8556C70.5872 42.6442 70.3211 42.5384 69.9808 42.5384C69.7499 42.5384 69.5445 42.5895 69.3646 42.6916C69.1872 42.7912 69.0474 42.9358 68.9453 43.1254C68.8457 43.315 68.7958 43.5447 68.7958 43.8145ZM75.3441 47.209C74.9892 47.209 74.6696 47.1458 74.3852 47.0194C74.1032 46.8906 73.8796 46.701 73.7143 46.4506C73.5515 46.2002 73.47 45.8915 73.47 45.5245C73.47 45.2085 73.5284 44.9472 73.645 44.7406C73.7617 44.534 73.9209 44.3687 74.1227 44.2448C74.3244 44.1208 74.5517 44.0272 74.8045 43.964C75.0597 43.8984 75.3234 43.851 75.5957 43.8218C75.9238 43.7878 76.19 43.7574 76.3941 43.7307C76.5983 43.7015 76.7466 43.6578 76.8389 43.5994C76.9337 43.5387 76.9811 43.4451 76.9811 43.3187V43.2968C76.9811 43.0221 76.8997 42.8094 76.7369 42.6587C76.574 42.508 76.3394 42.4327 76.0332 42.4327C75.7099 42.4327 75.4535 42.5032 75.2639 42.6442C75.0767 42.7851 74.9503 42.9516 74.8847 43.1437L73.6523 42.9687C73.7496 42.6284 73.91 42.344 74.1336 42.1155C74.3572 41.8846 74.6307 41.712 74.954 41.5978C75.2772 41.4811 75.6345 41.4227 76.0259 41.4227C76.2957 41.4227 76.5643 41.4543 76.8317 41.5175C77.099 41.5807 77.3433 41.6853 77.5645 41.8311C77.7857 41.9745 77.9631 42.1702 78.0968 42.4181C78.2329 42.666 78.301 42.9759 78.301 43.3478V47.0959H77.0322V46.3266H76.9884C76.9082 46.4822 76.7952 46.628 76.6494 46.7642C76.5059 46.8978 76.3249 47.006 76.1061 47.0887C75.8898 47.1689 75.6358 47.209 75.3441 47.209ZM75.6868 46.2391C75.9518 46.2391 76.1814 46.1869 76.3759 46.0824C76.5704 45.9754 76.7198 45.8344 76.8244 45.6594C76.9313 45.4844 76.9848 45.2936 76.9848 45.087V44.4271C76.9435 44.4611 76.873 44.4927 76.7733 44.5219C76.6761 44.551 76.5667 44.5765 76.4452 44.5984C76.3236 44.6203 76.2033 44.6397 76.0842 44.6568C75.9651 44.6738 75.8618 44.6884 75.7743 44.7005C75.5774 44.7273 75.4012 44.771 75.2456 44.8318C75.0901 44.8925 74.9673 44.9776 74.8774 45.087C74.7875 45.1939 74.7425 45.3325 74.7425 45.5026C74.7425 45.7457 74.8312 45.9292 75.0086 46.0532C75.1861 46.1772 75.4121 46.2391 75.6868 46.2391ZM82.0637 49.3127C81.5897 49.3127 81.1826 49.2483 80.8423 49.1195C80.502 48.9931 80.2285 48.8229 80.0219 48.609C79.8153 48.3951 79.6719 48.1582 79.5917 47.8981L80.7803 47.61C80.8338 47.7194 80.9116 47.8276 81.0136 47.9345C81.1157 48.0439 81.2531 48.1338 81.4256 48.2043C81.6007 48.2773 81.8206 48.3137 82.0856 48.3137C82.4599 48.3137 82.7698 48.2226 83.0153 48.0403C83.2608 47.8604 83.3836 47.5639 83.3836 47.1506V46.0896H83.3179C83.2499 46.2258 83.1502 46.3655 83.019 46.5089C82.8901 46.6523 82.7188 46.7727 82.5049 46.8699C82.2934 46.9671 82.0272 47.0157 81.7064 47.0157C81.2762 47.0157 80.886 46.9149 80.536 46.7131C80.1884 46.5089 79.9113 46.2051 79.7047 45.8016C79.5005 45.3957 79.3985 44.8877 79.3985 44.2776C79.3985 43.6626 79.5005 43.1437 79.7047 42.7207C79.9113 42.2954 80.1896 41.9733 80.5397 41.7545C80.8897 41.5333 81.2798 41.4227 81.71 41.4227C82.0382 41.4227 82.308 41.4787 82.5194 41.5905C82.7333 41.6998 82.9035 41.8323 83.0299 41.9879C83.1563 42.141 83.2523 42.2856 83.3179 42.4218H83.3908V41.4957H84.6925V47.1871C84.6925 47.6659 84.5782 48.0621 84.3497 48.3757C84.1213 48.6893 83.8089 48.9238 83.4127 49.0794C83.0165 49.2349 82.5668 49.3127 82.0637 49.3127ZM82.0746 45.9803C82.3542 45.9803 82.5924 45.9122 82.7893 45.7761C82.9861 45.64 83.1356 45.4443 83.2377 45.1891C83.3398 44.9339 83.3908 44.6276 83.3908 44.2703C83.3908 43.9178 83.3398 43.6091 83.2377 43.3442C83.1381 43.0793 82.9898 42.8739 82.7929 42.728C82.5984 42.5797 82.359 42.5056 82.0746 42.5056C81.7805 42.5056 81.535 42.5822 81.3381 42.7353C81.1413 42.8884 80.993 43.0987 80.8933 43.3661C80.7937 43.631 80.7438 43.9324 80.7438 44.2703C80.7438 44.613 80.7937 44.9132 80.8933 45.1709C80.9954 45.4261 81.1449 45.6254 81.3418 45.7688C81.5411 45.9098 81.7854 45.9803 82.0746 45.9803ZM88.5244 47.2053C87.9629 47.2053 87.478 47.0887 87.0697 46.8553C86.6637 46.6195 86.3514 46.2865 86.1326 45.8563C85.9139 45.4236 85.8045 44.9144 85.8045 44.3286C85.8045 43.7526 85.9139 43.247 86.1326 42.8119C86.3538 42.3744 86.6625 42.0341 87.0587 41.791C87.4549 41.5455 87.9204 41.4227 88.4552 41.4227C88.8003 41.4227 89.126 41.4787 89.4323 41.5905C89.741 41.6998 90.0132 41.87 90.249 42.1009C90.4872 42.3318 90.6744 42.6259 90.8105 42.9832C90.9466 43.3381 91.0147 43.7611 91.0147 44.2521V44.6568H86.4243V43.7671H89.7495C89.7471 43.5143 89.6924 43.2895 89.5854 43.0926C89.4785 42.8933 89.329 42.7365 89.137 42.6223C88.9474 42.508 88.7262 42.4509 88.4734 42.4509C88.2036 42.4509 87.9666 42.5166 87.7624 42.6478C87.5582 42.7766 87.399 42.9468 87.2848 43.1582C87.173 43.3673 87.1159 43.597 87.1134 43.8473V44.6239C87.1134 44.9497 87.173 45.2292 87.2921 45.4625C87.4112 45.6934 87.5777 45.8709 87.7916 45.9949C88.0055 46.1164 88.2558 46.1772 88.5427 46.1772C88.7347 46.1772 88.9085 46.1504 89.064 46.0969C89.2196 46.041 89.3545 45.9596 89.4688 45.8527C89.583 45.7457 89.6693 45.6132 89.7276 45.4552L90.96 45.5938C90.8822 45.9195 90.7339 46.2039 90.5152 46.447C90.2988 46.6876 90.0217 46.8748 89.6839 47.0084C89.346 47.1397 88.9595 47.2053 88.5244 47.2053ZM92.1313 47.0959V41.4957H93.411V42.429H93.4693C93.5714 42.1058 93.7464 41.8566 93.9944 41.6816C94.2447 41.5042 94.5303 41.4155 94.8512 41.4155C94.9241 41.4155 95.0055 41.4191 95.0955 41.4264C95.1878 41.4313 95.2644 41.4398 95.3252 41.4519V42.666C95.2693 42.6466 95.1805 42.6296 95.059 42.615C94.9399 42.598 94.8244 42.5895 94.7126 42.5895C94.472 42.5895 94.2557 42.6417 94.0636 42.7462C93.874 42.8483 93.7246 42.9905 93.6152 43.1728C93.5058 43.3551 93.4511 43.5654 93.4511 43.8036V47.0959H92.1313Z" fill="#18181B"/>
</svg>
