<svg width="345" height="6" viewBox="0 0 345 6" fill="none" xmlns="http://www.w3.org/2000/svg">
<g clip-path="url(#paint0_diamond_26_2_clip_path)" data-figma-skip-parse="true"><g transform="matrix(0.1725 0 0 0.003 172.5 3)"><rect x="0" y="0" width="1005.8" height="1333.33" fill="url(#paint0_diamond_26_2)" opacity="1" shape-rendering="crispEdges"/><rect x="0" y="0" width="1005.8" height="1333.33" transform="scale(1 -1)" fill="url(#paint0_diamond_26_2)" opacity="1" shape-rendering="crispEdges"/><rect x="0" y="0" width="1005.8" height="1333.33" transform="scale(-1 1)" fill="url(#paint0_diamond_26_2)" opacity="1" shape-rendering="crispEdges"/><rect x="0" y="0" width="1005.8" height="1333.33" transform="scale(-1)" fill="url(#paint0_diamond_26_2)" opacity="1" shape-rendering="crispEdges"/></g></g><path d="M0 3C0 1.34315 1.34315 0 3 0H342C343.657 0 345 1.34315 345 3C345 4.65685 343.657 6 342 6H3C1.34315 6 0 4.65685 0 3Z" data-figma-gradient-fill="{&#34;type&#34;:&#34;GRADIENT_DIAMOND&#34;,&#34;stops&#34;:[{&#34;color&#34;:{&#34;r&#34;:0.39215686917304993,&#34;g&#34;:0.21568627655506134,&#34;b&#34;:0.043137256056070328,&#34;a&#34;:1.0},&#34;position&#34;:0.48405283689498901},{&#34;color&#34;:{&#34;r&#34;:0.63921570777893066,&#34;g&#34;:0.35294118523597717,&#34;b&#34;:0.12156862765550613,&#34;a&#34;:1.0},&#34;position&#34;:0.98076921701431274},{&#34;color&#34;:{&#34;r&#34;:0.63921570777893066,&#34;g&#34;:0.35294118523597717,&#34;b&#34;:0.12156862765550613,&#34;a&#34;:1.0},&#34;position&#34;:1.0}],&#34;stopsVar&#34;:[{&#34;color&#34;:{&#34;r&#34;:0.39215686917304993,&#34;g&#34;:0.21568627655506134,&#34;b&#34;:0.043137256056070328,&#34;a&#34;:1.0},&#34;position&#34;:0.48405283689498901},{&#34;color&#34;:{&#34;r&#34;:0.63921570777893066,&#34;g&#34;:0.35294118523597717,&#34;b&#34;:0.12156862765550613,&#34;a&#34;:1.0},&#34;position&#34;:0.98076921701431274},{&#34;color&#34;:{&#34;r&#34;:0.63921570777893066,&#34;g&#34;:0.35294118523597717,&#34;b&#34;:0.12156862765550613,&#34;a&#34;:1.0},&#34;position&#34;:1.0}],&#34;transform&#34;:{&#34;m00&#34;:345.0,&#34;m01&#34;:0.0,&#34;m02&#34;:0.0,&#34;m10&#34;:0.0,&#34;m11&#34;:6.0,&#34;m12&#34;:0.0},&#34;opacity&#34;:1.0,&#34;blendMode&#34;:&#34;NORMAL&#34;,&#34;visible&#34;:true}"/>
<defs>
<clipPath id="paint0_diamond_26_2_clip_path"><path d="M0 3C0 1.34315 1.34315 0 3 0H342C343.657 0 345 1.34315 345 3C345 4.65685 343.657 6 342 6H3C1.34315 6 0 4.65685 0 3Z"/></clipPath><linearGradient id="paint0_diamond_26_2" x1="0" y1="0" x2="500" y2="500" gradientUnits="userSpaceOnUse">
<stop offset="0.484053" stop-color="#64370B"/>
<stop offset="0.980769" stop-color="#A35A1F"/>
<stop offset="1" stop-color="#A35A1F"/>
</linearGradient>
</defs>
</svg>
